<svg width="60" height="60" viewBox="0 0 60 60" fill="none" xmlns="http://www.w3.org/2000/svg">
<path opacity="0.806455" fill-rule="evenodd" clip-rule="evenodd" d="M0 30C0 13.458 13.458 0 30 0C46.542 0 60 13.458 60 30C60 46.542 46.542 60 30 60C13.458 60 0 46.542 0 30ZM23.563 45.826L45.563 30.826C45.836 30.64 46 30.331 46 30C46 29.669 45.836 29.36 45.564 29.174L23.564 14.174C23.257 13.966 22.861 13.942 22.533 14.116C22.205 14.289 22 14.629 22 15V45C22 45.371 22.205 45.711 22.533 45.884C22.679 45.962 22.84 46 23 46C23.197 46 23.394 45.941 23.563 45.826Z" fill="white"/>
</svg>
